<?xml version="1.0" encoding="utf-8"?>
<!-- Generator: Adobe Illustrator 16.0.0, SVG Export Plug-In . SVG Version: 6.00 Build 0)  -->
<!DOCTYPE svg PUBLIC "-//W3C//DTD SVG 1.1//EN" "http://www.w3.org/Graphics/SVG/1.1/DTD/svg11.dtd">
<svg version="1.1" id="Layer_1" xmlns="http://www.w3.org/2000/svg" xmlns:xlink="http://www.w3.org/1999/xlink" x="0px" y="0px"
	 width="128px" height="128px" viewBox="0 0 128 128" enable-background="new 0 0 128 128" xml:space="preserve">
<g>
	<g>
		<linearGradient id="SVGID_1_" gradientUnits="userSpaceOnUse" x1="90.5508" y1="24.5566" x2="26.5405" y2="119.6479">
			<stop  offset="0" style="stop-color:#E42327"/>
			<stop  offset="1" style="stop-color:#7D2164"/>
		</linearGradient>
		<path fill="url(#SVGID_1_)" d="M128,104.141c0,13.121-10.735,23.856-23.856,23.856H23.856C10.735,127.997,0,117.262,0,104.141
			V23.856C0,10.735,10.735,0,23.856,0h80.288C117.265,0,128,10.735,128,23.856V104.141z"/>
	</g>
	<g>
		<g>
			<path fill="#FFFFFF" d="M55.247,52.135c0-2.838,2.011-3.999,4.468-2.58l18.426,10.639c2.458,1.418,2.458,3.741,0.001,5.159
				l-18.427,10.64c-2.458,1.419-4.468,0.258-4.468-2.579V52.135z"/>
		</g>
		<path fill="#FFFFFF" d="M84.772,86.041l7.207,7.97c-7.438,6.957-17.435,11.222-28.423,11.222
			c-22.988,0-41.622-18.633-41.622-41.621c0-22.987,18.633-41.621,41.622-41.621c10.601,0,20.287,3.967,27.633,10.5
			c0.397,0.352,0.787,0.711,1.169,1.079l-7.435,7.431l-0.167,0.165c-5.531-5.227-12.993-8.433-21.201-8.433
			c-17.056,0-30.878,13.825-30.878,30.878c0,17.052,13.823,30.877,30.878,30.877C71.77,94.489,79.239,91.279,84.772,86.041z"/>
		<g>
			<path fill="#FFFFFF" d="M105.174,63.612c0,0.313-0.004,0.631-0.011,0.943v0.003c-0.07,3.151-0.49,6.215-1.225,9.154
				c-1.116,4.48-2.959,8.673-5.396,12.449l-2.659-2.173l-5.733-4.68c2.533-4.283,4.059-9.229,4.258-14.514v-0.002
				c0.017-0.391,0.026-0.788,0.026-1.182c0-0.397-0.01-0.789-0.026-1.184v-0.002c0.289-1.313,1.049-2.449,2.095-3.224
				c0.912-0.675,2.04-1.073,3.262-1.073c0.809,0,1.576,0.174,2.269,0.489c1.618,0.739,2.817,2.242,3.131,4.046v0.001
				C105.17,62.979,105.174,63.297,105.174,63.612z"/>
		</g>
		<circle fill="#FFFFFF" cx="97.023" cy="49.674" r="7.233"/>
	</g>
</g>
</svg>
